<?xml version="1.0" encoding="UTF-8"?>
<svg id="Layer_2" data-name="Layer 2" xmlns="http://www.w3.org/2000/svg" viewBox="0 0 1329.76 333.27">
  <defs>
    <style>
      .cls-1 {
        fill: #052cba;
      }
    </style>
  </defs>
  <g id="Layer_1-2" data-name="Layer 1">
    <g>
      <path d="M0,288.42l45.35-41.28c15.8,18.85,35.16,30.58,56.56,30.58s35.16-9.68,35.16-25.99c0-17.33-18.34-22.42-40.26-27.52-43.31-11.21-84.08-30.07-84.08-82.55S55.54,60.64,108.54,60.64c34.14,0,63.7,11.72,85.61,37.2l-43.82,41.28c-12.23-15.29-25.99-22.93-42.8-22.93-19.36,0-32.61,9.17-32.61,24.97s17.84,21.4,39.75,27.01c44.33,11.21,85.1,28.03,85.1,81.53,0,50.45-43.31,83.57-100.39,83.57-39.75,0-76.44-16.31-99.37-44.84Z"/>
      <path d="M286.39,325.11l-84.08-255.81h68.79l49.43,157.46,54.53-157.46h49.94l55.54,159.5,47.9-159.5h68.79l-83.57,255.81h-59.62l-54.02-159.5-55.03,159.5h-58.6Z"/>
      <path d="M925.9,130.45h-37.2v-61.15h37.2V0h69.3v69.3h55.54v61.15h-55.54v194.66h-69.3v-194.66Z"/>
    </g>
    <path class="cls-1" d="M597.23,162.38v88.59c0,45.45,36.84,82.29,82.29,82.29h170.88V80.09h-170.88c-45.45,0-82.29,36.84-82.29,82.29ZM622.46,235.2l-7.46,15.98c-.25.54-.89.77-1.43.52-.54-.25-.77-.89-.52-1.43l7.46-15.98c.18-.39.57-.62.97-.62.15,0,.31.03.45.1.54.25.77.89.52,1.43ZM622.46,211.21l-7.46,15.98c-.25.54-.89.77-1.43.52-.54-.25-.77-.89-.52-1.43l7.46-15.98c.18-.39.57-.62.97-.62.15,0,.31.03.45.1.54.25.77.89.52,1.43ZM622.46,187.21l-7.46,15.98c-.25.54-.89.77-1.43.52-.54-.25-.77-.89-.52-1.43l7.46-15.98c.18-.39.57-.62.97-.62.15,0,.31.03.45.1.54.25.77.89.52,1.43ZM622.46,163.21l-7.46,15.98c-.25.54-.89.77-1.43.52-.54-.25-.77-.89-.52-1.43l7.46-15.98c.18-.39.57-.62.97-.62.15,0,.31.03.45.1.54.25.77.89.52,1.43ZM646.04,283.2l-7.46,15.98c-.25.54-.89.77-1.43.52-.54-.25-.77-.89-.52-1.43l7.46-15.98c.18-.39.57-.62.97-.62.15,0,.31.03.45.1.54.25.77.89.52,1.43ZM646.04,259.2l-7.46,15.98c-.25.54-.89.77-1.43.52-.54-.25-.77-.89-.52-1.43l7.46-15.98c.18-.39.57-.62.97-.62.15,0,.31.03.45.1.54.25.77.89.52,1.43ZM646.04,235.2l-7.46,15.98c-.25.54-.89.77-1.43.52-.54-.25-.77-.89-.52-1.43l7.46-15.98c.18-.39.57-.62.97-.62.15,0,.31.03.45.1.54.25.77.89.52,1.43ZM646.04,211.21l-7.46,15.98c-.25.54-.89.77-1.43.52-.54-.25-.77-.89-.52-1.43l7.46-15.98c.18-.39.57-.62.97-.62.15,0,.31.03.45.1.54.25.77.89.52,1.43ZM646.04,187.21l-7.46,15.98c-.25.54-.89.77-1.43.52-.54-.25-.77-.89-.52-1.43l7.46-15.98c.18-.39.57-.62.97-.62.15,0,.31.03.45.1.54.25.77.89.52,1.43ZM646.04,163.21l-7.46,15.98c-.25.54-.89.77-1.43.52-.54-.25-.77-.89-.52-1.43l7.46-15.98c.18-.39.57-.62.97-.62.15,0,.31.03.45.1.54.25.77.89.52,1.43ZM646.04,139.22l-7.46,15.98c-.25.54-.89.77-1.43.52-.54-.25-.77-.89-.52-1.43l7.46-15.98c.18-.39.57-.62.97-.62.15,0,.31.03.45.1.54.25.77.89.52,1.43ZM646.04,115.22l-7.46,15.98c-.25.54-.89.77-1.43.52-.54-.25-.77-.89-.52-1.43l7.46-15.98c.18-.39.57-.62.97-.62.15,0,.31.03.45.1.54.25.77.89.52,1.43ZM669.62,307.19l-7.46,15.98c-.25.54-.89.77-1.43.52-.54-.25-.77-.89-.52-1.43l7.46-15.98c.18-.39.57-.62.97-.62.15,0,.31.03.45.1.54.25.77.89.52,1.43ZM669.62,283.2l-7.46,15.98c-.25.54-.89.77-1.43.52-.54-.25-.77-.89-.52-1.43l7.46-15.98c.18-.39.57-.62.97-.62.15,0,.31.03.45.1.54.25.77.89.52,1.43ZM669.62,259.2l-7.46,15.98c-.25.54-.89.77-1.43.52-.54-.25-.77-.89-.52-1.43l7.46-15.98c.18-.39.57-.62.97-.62.15,0,.31.03.45.1.54.25.77.89.52,1.43ZM669.62,235.2l-7.46,15.98c-.25.54-.89.77-1.43.52-.54-.25-.77-.89-.52-1.43l7.46-15.98c.18-.39.57-.62.97-.62.15,0,.31.03.45.1.54.25.77.89.52,1.43ZM669.62,211.21l-7.46,15.98c-.25.54-.89.77-1.43.52-.54-.25-.77-.89-.52-1.43l7.46-15.98c.18-.39.57-.62.97-.62.15,0,.31.03.45.1.54.25.77.89.52,1.43ZM669.62,187.21l-7.46,15.98c-.25.54-.89.77-1.43.52-.54-.25-.77-.89-.52-1.43l7.46-15.98c.18-.39.57-.62.97-.62.15,0,.31.03.45.1.54.25.77.89.52,1.43ZM669.62,163.21l-7.46,15.98c-.25.54-.89.77-1.43.52-.54-.25-.77-.89-.52-1.43l7.46-15.98c.18-.39.57-.62.97-.62.15,0,.31.03.45.1.54.25.77.89.52,1.43ZM669.62,139.22l-7.46,15.98c-.25.54-.89.77-1.43.52-.54-.25-.77-.89-.52-1.43l7.46-15.98c.18-.39.57-.62.97-.62.15,0,.31.03.45.1.54.25.77.89.52,1.43ZM669.62,115.22l-7.46,15.98c-.25.54-.89.77-1.43.52-.54-.25-.77-.89-.52-1.43l7.46-15.98c.18-.39.57-.62.97-.62.15,0,.31.03.45.1.54.25.77.89.52,1.43ZM669.62,91.22l-7.46,15.98c-.25.54-.89.77-1.43.52-.54-.25-.77-.89-.52-1.43l7.46-15.98c.18-.39.57-.62.97-.62.15,0,.31.03.45.1.54.25.77.89.52,1.43ZM693.21,307.19l-7.46,15.98c-.25.54-.89.77-1.43.52-.54-.25-.77-.89-.52-1.43l7.46-15.98c.18-.39.57-.62.97-.62.15,0,.31.03.45.1.54.25.77.89.52,1.43ZM693.21,283.2l-7.46,15.98c-.25.54-.89.77-1.43.52-.54-.25-.77-.89-.52-1.43l7.46-15.98c.18-.39.57-.62.97-.62.15,0,.31.03.45.1.54.25.77.89.52,1.43ZM693.21,259.2l-7.46,15.98c-.25.54-.89.77-1.43.52-.54-.25-.77-.89-.52-1.43l7.46-15.98c.18-.39.57-.62.97-.62.15,0,.31.03.45.1.54.25.77.89.52,1.43ZM693.21,139.22l-7.46,15.98c-.25.54-.89.77-1.43.52-.54-.25-.77-.89-.52-1.43l7.46-15.98c.18-.39.57-.62.97-.62.15,0,.31.03.45.1.54.25.77.89.52,1.43ZM693.21,115.22l-7.46,15.98c-.25.54-.89.77-1.43.52-.54-.25-.77-.89-.52-1.43l7.46-15.98c.18-.39.57-.62.97-.62.15,0,.31.03.45.1.54.25.77.89.52,1.43ZM693.21,91.22l-7.46,15.98c-.25.54-.89.77-1.43.52-.54-.25-.77-.89-.52-1.43l7.46-15.98c.18-.39.57-.62.97-.62.15,0,.31.03.45.1.54.25.77.89.52,1.43ZM716.79,307.19l-7.46,15.98c-.25.54-.89.77-1.43.52-.54-.25-.77-.89-.52-1.43l7.46-15.98c.18-.39.57-.62.97-.62.15,0,.31.03.45.1.54.25.77.89.52,1.43ZM716.79,283.2l-7.46,15.98c-.25.54-.89.77-1.43.52-.54-.25-.77-.89-.52-1.43l7.46-15.98c.18-.39.57-.62.97-.62.15,0,.31.03.45.1.54.25.77.89.52,1.43ZM716.79,115.22l-7.46,15.98c-.25.54-.89.77-1.43.52-.54-.25-.77-.89-.52-1.43l7.46-15.98c.18-.39.57-.62.97-.62.15,0,.31.03.45.1.54.25.77.89.52,1.43ZM716.79,91.22l-7.46,15.98c-.25.54-.89.77-1.43.52-.54-.25-.77-.89-.52-1.43l7.46-15.98c.18-.39.57-.62.97-.62.15,0,.31.03.45.1.54.25.77.89.52,1.43ZM740.38,307.19l-7.46,15.98c-.25.54-.89.77-1.43.52-.54-.25-.77-.89-.52-1.43l7.46-15.98c.18-.39.57-.62.97-.62.15,0,.31.03.45.1.54.25.77.89.52,1.43ZM740.38,283.2l-7.46,15.98c-.25.54-.89.77-1.43.52-.54-.25-.77-.89-.52-1.43l7.46-15.98c.18-.39.57-.62.97-.62.15,0,.31.03.45.1.54.25.77.89.52,1.43ZM740.38,115.22l-7.46,15.98c-.25.54-.89.77-1.43.52-.54-.25-.77-.89-.52-1.43l7.46-15.98c.18-.39.57-.62.97-.62.15,0,.31.03.45.1.54.25.77.89.52,1.43ZM740.38,91.22l-7.46,15.98c-.25.54-.89.77-1.43.52-.54-.25-.77-.89-.52-1.43l7.46-15.98c.18-.39.57-.62.97-.62.15,0,.31.03.45.1.54.25.77.89.52,1.43ZM763.96,283.2l-7.46,15.98c-.25.54-.89.77-1.43.52-.54-.25-.77-.89-.52-1.43l7.46-15.98c.18-.39.57-.62.97-.62.15,0,.31.03.45.1.54.25.77.89.52,1.43ZM763.96,259.2l-7.46,15.98c-.25.54-.89.77-1.43.52-.54-.25-.77-.89-.52-1.43l7.46-15.98c.18-.39.57-.62.97-.62.15,0,.31.03.45.1.54.25.77.89.52,1.43ZM763.96,139.22l-7.46,15.98c-.25.54-.89.77-1.43.52-.54-.25-.77-.89-.52-1.43l7.46-15.98c.18-.39.57-.62.97-.62.15,0,.31.03.45.1.54.25.77.89.52,1.43ZM763.96,115.22l-7.46,15.98c-.25.54-.89.77-1.43.52-.54-.25-.77-.89-.52-1.43l7.46-15.98c.18-.39.57-.62.97-.62.15,0,.31.03.45.1.54.25.77.89.52,1.43ZM787.54,283.2l-7.46,15.98c-.25.54-.89.77-1.43.52-.54-.25-.77-.89-.52-1.43l7.46-15.98c.18-.39.57-.62.97-.62.15,0,.31.03.45.1.54.25.77.89.52,1.43ZM787.54,259.2l-7.46,15.98c-.25.54-.89.77-1.43.52-.54-.25-.77-.89-.52-1.43l7.46-15.98c.18-.39.57-.62.97-.62.15,0,.31.03.45.1.54.25.77.89.52,1.43ZM787.54,235.2l-7.46,15.98c-.25.54-.89.77-1.43.52-.54-.25-.77-.89-.52-1.43l7.46-15.98c.18-.39.57-.62.97-.62.15,0,.31.03.45.1.54.25.77.89.52,1.43ZM787.54,211.21l-7.46,15.98c-.25.54-.89.77-1.43.52-.54-.25-.77-.89-.52-1.43l7.46-15.98c.18-.39.57-.62.97-.62.15,0,.31.03.45.1.54.25.77.89.52,1.43ZM787.54,187.21l-7.46,15.98c-.25.54-.89.77-1.43.52-.54-.25-.77-.89-.52-1.43l7.46-15.98c.18-.39.57-.62.97-.62.15,0,.31.03.45.1.54.25.77.89.52,1.43ZM787.54,163.21l-7.46,15.98c-.25.54-.89.77-1.43.52-.54-.25-.77-.89-.52-1.43l7.46-15.98c.18-.39.57-.62.97-.62.15,0,.31.03.45.1.54.25.77.89.52,1.43ZM787.54,139.22l-7.46,15.98c-.25.54-.89.77-1.43.52-.54-.25-.77-.89-.52-1.43l7.46-15.98c.18-.39.57-.62.97-.62.15,0,.31.03.45.1.54.25.77.89.52,1.43ZM787.54,115.22l-7.46,15.98c-.25.54-.89.77-1.43.52-.54-.25-.77-.89-.52-1.43l7.46-15.98c.18-.39.57-.62.97-.62.15,0,.31.03.45.1.54.25.77.89.52,1.43ZM787.54,91.22l-7.46,15.98c-.25.54-.89.77-1.43.52-.54-.25-.77-.89-.52-1.43l7.46-15.98c.18-.39.57-.62.97-.62.15,0,.31.03.45.1.54.25.77.89.52,1.43ZM811.13,307.19l-7.46,15.98c-.25.54-.89.77-1.43.52-.54-.25-.77-.89-.52-1.43l7.46-15.98c.18-.39.57-.62.97-.62.15,0,.31.03.45.1.54.25.77.89.52,1.43ZM811.13,283.2l-7.46,15.98c-.25.54-.89.77-1.43.52-.54-.25-.77-.89-.52-1.43l7.46-15.98c.18-.39.57-.62.97-.62.15,0,.31.03.45.1.54.25.77.89.52,1.43ZM811.13,259.2l-7.46,15.98c-.25.54-.89.77-1.43.52-.54-.25-.77-.89-.52-1.43l7.46-15.98c.18-.39.57-.62.97-.62.15,0,.31.03.45.1.54.25.77.89.52,1.43ZM811.13,235.2l-7.46,15.98c-.25.54-.89.77-1.43.52-.54-.25-.77-.89-.52-1.43l7.46-15.98c.18-.39.57-.62.97-.62.15,0,.31.03.45.1.54.25.77.89.52,1.43ZM811.13,211.21l-7.46,15.98c-.25.54-.89.77-1.43.52-.54-.25-.77-.89-.52-1.43l7.46-15.98c.18-.39.57-.62.97-.62.15,0,.31.03.45.1.54.25.77.89.52,1.43ZM811.13,187.21l-7.46,15.98c-.25.54-.89.77-1.43.52-.54-.25-.77-.89-.52-1.43l7.46-15.98c.18-.39.57-.62.97-.62.15,0,.31.03.45.1.54.25.77.89.52,1.43ZM811.13,163.21l-7.46,15.98c-.25.54-.89.77-1.43.52-.54-.25-.77-.89-.52-1.43l7.46-15.98c.18-.39.57-.62.97-.62.15,0,.31.03.45.1.54.25.77.89.52,1.43ZM811.13,139.22l-7.46,15.98c-.25.54-.89.77-1.43.52-.54-.25-.77-.89-.52-1.43l7.46-15.98c.18-.39.57-.62.97-.62.15,0,.31.03.45.1.54.25.77.89.52,1.43ZM811.13,115.22l-7.46,15.98c-.25.54-.89.77-1.43.52-.54-.25-.77-.89-.52-1.43l7.46-15.98c.18-.39.57-.62.97-.62.15,0,.31.03.45.1.54.25.77.89.52,1.43ZM811.13,91.22l-7.46,15.98c-.25.54-.89.77-1.43.52-.54-.25-.77-.89-.52-1.43l7.46-15.98c.18-.39.57-.62.97-.62.15,0,.31.03.45.1.54.25.77.89.52,1.43ZM834.71,307.19l-7.46,15.98c-.25.54-.89.77-1.43.52-.54-.25-.77-.89-.52-1.43l7.46-15.98c.18-.39.57-.62.97-.62.15,0,.31.03.45.1.54.25.77.89.52,1.43ZM834.71,283.2l-7.46,15.98c-.25.54-.89.77-1.43.52-.54-.25-.77-.89-.52-1.43l7.46-15.98c.18-.39.57-.62.97-.62.15,0,.31.03.45.1.54.25.77.89.52,1.43ZM834.71,259.2l-7.46,15.98c-.25.54-.89.77-1.43.52-.54-.25-.77-.89-.52-1.43l7.46-15.98c.18-.39.57-.62.97-.62.15,0,.31.03.45.1.54.25.77.89.52,1.43ZM834.71,235.2l-7.46,15.98c-.25.54-.89.77-1.43.52-.54-.25-.77-.89-.52-1.43l7.46-15.98c.18-.39.57-.62.97-.62.15,0,.31.03.45.1.54.25.77.89.52,1.43ZM834.71,211.21l-7.46,15.98c-.25.54-.89.77-1.43.52-.54-.25-.77-.89-.52-1.43l7.46-15.98c.18-.39.57-.62.97-.62.15,0,.31.03.45.1.54.25.77.89.52,1.43ZM834.71,187.21l-7.46,15.98c-.25.54-.89.77-1.43.52-.54-.25-.77-.89-.52-1.43l7.46-15.98c.18-.39.57-.62.97-.62.15,0,.31.03.45.1.54.25.77.89.52,1.43ZM834.71,163.21l-7.46,15.98c-.25.54-.89.77-1.43.52-.54-.25-.77-.89-.52-1.43l7.46-15.98c.18-.39.57-.62.97-.62.15,0,.31.03.45.1.54.25.77.89.52,1.43ZM834.71,139.22l-7.46,15.98c-.25.54-.89.77-1.43.52-.54-.25-.77-.89-.52-1.43l7.46-15.98c.18-.39.57-.62.97-.62.15,0,.31.03.45.1.54.25.77.89.52,1.43ZM834.71,115.22l-7.46,15.98c-.25.54-.89.77-1.43.52-.54-.25-.77-.89-.52-1.43l7.46-15.98c.18-.39.57-.62.97-.62.15,0,.31.03.45.1.54.25.77.89.52,1.43Z"/>
    <path class="cls-1" d="M1076.58,152.91v88.59c0,45.45,36.84,82.29,82.29,82.29h170.88V70.62h-170.88c-45.45,0-82.29,36.84-82.29,82.29ZM1101.81,225.73l-7.46,15.98c-.25.54-.89.77-1.43.52-.54-.25-.77-.89-.52-1.43l7.46-15.98c.18-.39.57-.62.97-.62.15,0,.31.03.45.1.54.25.77.89.52,1.43ZM1101.81,201.74l-7.46,15.98c-.25.54-.89.77-1.43.52-.54-.25-.77-.89-.52-1.43l7.46-15.98c.18-.39.57-.62.97-.62.15,0,.31.03.45.1.54.25.77.89.52,1.43ZM1101.81,177.74l-7.46,15.98c-.25.54-.89.77-1.43.52-.54-.25-.77-.89-.52-1.43l7.46-15.98c.18-.39.57-.62.97-.62.15,0,.31.03.45.1.54.25.77.89.52,1.43ZM1101.81,153.74l-7.46,15.98c-.25.54-.89.77-1.43.52-.54-.25-.77-.89-.52-1.43l7.46-15.98c.18-.39.57-.62.97-.62.15,0,.31.03.45.1.54.25.77.89.52,1.43ZM1125.39,273.73l-7.46,15.98c-.25.54-.89.77-1.43.52-.54-.25-.77-.89-.52-1.43l7.46-15.98c.18-.39.57-.62.97-.62.15,0,.31.03.45.1.54.25.77.89.52,1.43ZM1125.39,249.73l-7.46,15.98c-.25.54-.89.77-1.43.52-.54-.25-.77-.89-.52-1.43l7.46-15.98c.18-.39.57-.62.97-.62.15,0,.31.03.45.1.54.25.77.89.52,1.43ZM1125.39,225.73l-7.46,15.98c-.25.54-.89.77-1.43.52-.54-.25-.77-.89-.52-1.43l7.46-15.98c.18-.39.57-.62.97-.62.15,0,.31.03.45.1.54.25.77.89.52,1.43ZM1125.39,201.74l-7.46,15.98c-.25.54-.89.77-1.43.52-.54-.25-.77-.89-.52-1.43l7.46-15.98c.18-.39.57-.62.97-.62.15,0,.31.03.45.1.54.25.77.89.52,1.43ZM1125.39,177.74l-7.46,15.98c-.25.54-.89.77-1.43.52-.54-.25-.77-.89-.52-1.43l7.46-15.98c.18-.39.57-.62.97-.62.15,0,.31.03.45.1.54.25.77.89.52,1.43ZM1125.39,153.74l-7.46,15.98c-.25.54-.89.77-1.43.52-.54-.25-.77-.89-.52-1.43l7.46-15.98c.18-.39.57-.62.97-.62.15,0,.31.03.45.1.54.25.77.89.52,1.43ZM1125.39,129.75l-7.46,15.98c-.25.54-.89.77-1.43.52-.54-.25-.77-.89-.52-1.43l7.46-15.98c.18-.39.57-.62.97-.62.15,0,.31.03.45.1.54.25.77.89.52,1.43ZM1125.39,105.75l-7.46,15.98c-.25.54-.89.77-1.43.52-.54-.25-.77-.89-.52-1.43l7.46-15.98c.18-.39.57-.62.97-.62.15,0,.31.03.45.1.54.25.77.89.52,1.43ZM1148.97,297.72l-7.46,15.98c-.25.54-.89.77-1.43.52-.54-.25-.77-.89-.52-1.43l7.46-15.98c.18-.39.57-.62.97-.62.15,0,.31.03.45.1.54.25.77.89.52,1.43ZM1148.97,273.73l-7.46,15.98c-.25.54-.89.77-1.43.52-.54-.25-.77-.89-.52-1.43l7.46-15.98c.18-.39.57-.62.97-.62.15,0,.31.03.45.1.54.25.77.89.52,1.43ZM1148.97,249.73l-7.46,15.98c-.25.54-.89.77-1.43.52-.54-.25-.77-.89-.52-1.43l7.46-15.98c.18-.39.57-.62.97-.62.15,0,.31.03.45.1.54.25.77.89.52,1.43ZM1148.97,225.73l-7.46,15.98c-.25.54-.89.77-1.43.52-.54-.25-.77-.89-.52-1.43l7.46-15.98c.18-.39.57-.62.97-.62.15,0,.31.03.45.1.54.25.77.89.52,1.43ZM1148.97,201.74l-7.46,15.98c-.25.54-.89.77-1.43.52-.54-.25-.77-.89-.52-1.43l7.46-15.98c.18-.39.57-.62.97-.62.15,0,.31.03.45.1.54.25.77.89.52,1.43ZM1148.97,177.74l-7.46,15.98c-.25.54-.89.77-1.43.52-.54-.25-.77-.89-.52-1.43l7.46-15.98c.18-.39.57-.62.97-.62.15,0,.31.03.45.1.54.25.77.89.52,1.43ZM1148.97,153.74l-7.46,15.98c-.25.54-.89.77-1.43.52-.54-.25-.77-.89-.52-1.43l7.46-15.98c.18-.39.57-.62.97-.62.15,0,.31.03.45.1.54.25.77.89.52,1.43ZM1148.97,129.75l-7.46,15.98c-.25.54-.89.77-1.43.52-.54-.25-.77-.89-.52-1.43l7.46-15.98c.18-.39.57-.62.97-.62.15,0,.31.03.45.1.54.25.77.89.52,1.43ZM1148.97,105.75l-7.46,15.98c-.25.54-.89.77-1.43.52-.54-.25-.77-.89-.52-1.43l7.46-15.98c.18-.39.57-.62.97-.62.15,0,.31.03.45.1.54.25.77.89.52,1.43ZM1148.97,81.75l-7.46,15.98c-.25.54-.89.77-1.43.52-.54-.25-.77-.89-.52-1.43l7.46-15.98c.18-.39.57-.62.97-.62.15,0,.31.03.45.1.54.25.77.89.52,1.43ZM1172.56,297.72l-7.46,15.98c-.25.54-.89.77-1.43.52-.54-.25-.77-.89-.52-1.43l7.46-15.98c.18-.39.57-.62.97-.62.15,0,.31.03.45.1.54.25.77.89.52,1.43ZM1172.56,273.73l-7.46,15.98c-.25.54-.89.77-1.43.52-.54-.25-.77-.89-.52-1.43l7.46-15.98c.18-.39.57-.62.97-.62.15,0,.31.03.45.1.54.25.77.89.52,1.43ZM1172.56,249.73l-7.46,15.98c-.25.54-.89.77-1.43.52-.54-.25-.77-.89-.52-1.43l7.46-15.98c.18-.39.57-.62.97-.62.15,0,.31.03.45.1.54.25.77.89.52,1.43ZM1172.56,129.75l-7.46,15.98c-.25.54-.89.77-1.43.52-.54-.25-.77-.89-.52-1.43l7.46-15.98c.18-.39.57-.62.97-.62.15,0,.31.03.45.1.54.25.77.89.52,1.43ZM1172.56,105.75l-7.46,15.98c-.25.54-.89.77-1.43.52-.54-.25-.77-.89-.52-1.43l7.46-15.98c.18-.39.57-.62.97-.62.15,0,.31.03.45.1.54.25.77.89.52,1.43ZM1172.56,81.75l-7.46,15.98c-.25.54-.89.77-1.43.52-.54-.25-.77-.89-.52-1.43l7.46-15.98c.18-.39.57-.62.97-.62.15,0,.31.03.45.1.54.25.77.89.52,1.43ZM1196.14,297.72l-7.46,15.98c-.25.54-.89.77-1.43.52-.54-.25-.77-.89-.52-1.43l7.46-15.98c.18-.39.57-.62.97-.62.15,0,.31.03.45.1.54.25.77.89.52,1.43ZM1196.14,273.73l-7.46,15.98c-.25.54-.89.77-1.43.52-.54-.25-.77-.89-.52-1.43l7.46-15.98c.18-.39.57-.62.97-.62.15,0,.31.03.45.1.54.25.77.89.52,1.43ZM1196.14,105.75l-7.46,15.98c-.25.54-.89.77-1.43.52-.54-.25-.77-.89-.52-1.43l7.46-15.98c.18-.39.57-.62.97-.62.15,0,.31.03.45.1.54.25.77.89.52,1.43ZM1196.14,81.75l-7.46,15.98c-.25.54-.89.77-1.43.52-.54-.25-.77-.89-.52-1.43l7.46-15.98c.18-.39.57-.62.97-.62.15,0,.31.03.45.1.54.25.77.89.52,1.43ZM1219.72,297.72l-7.46,15.98c-.25.54-.89.77-1.43.52-.54-.25-.77-.89-.52-1.43l7.46-15.98c.18-.39.57-.62.97-.62.15,0,.31.03.45.1.54.25.77.89.52,1.43ZM1219.72,273.73l-7.46,15.98c-.25.54-.89.77-1.43.52-.54-.25-.77-.89-.52-1.43l7.46-15.98c.18-.39.57-.62.97-.62.15,0,.31.03.45.1.54.25.77.89.52,1.43ZM1219.72,105.75l-7.46,15.98c-.25.54-.89.77-1.43.52-.54-.25-.77-.89-.52-1.43l7.46-15.98c.18-.39.57-.62.97-.62.15,0,.31.03.45.1.54.25.77.89.52,1.43ZM1219.72,81.75l-7.46,15.98c-.25.54-.89.77-1.43.52-.54-.25-.77-.89-.52-1.43l7.46-15.98c.18-.39.57-.62.97-.62.15,0,.31.03.45.1.54.25.77.89.52,1.43ZM1243.31,273.73l-7.46,15.98c-.25.54-.89.77-1.43.52-.54-.25-.77-.89-.52-1.43l7.46-15.98c.18-.39.57-.62.97-.62.15,0,.31.03.45.1.54.25.77.89.52,1.43ZM1243.31,249.73l-7.46,15.98c-.25.54-.89.77-1.43.52-.54-.25-.77-.89-.52-1.43l7.46-15.98c.18-.39.57-.62.97-.62.15,0,.31.03.45.1.54.25.77.89.52,1.43ZM1243.31,129.75l-7.46,15.98c-.25.54-.89.77-1.43.52-.54-.25-.77-.89-.52-1.43l7.46-15.98c.18-.39.57-.62.97-.62.15,0,.31.03.45.1.54.25.77.89.52,1.43ZM1243.31,105.75l-7.46,15.98c-.25.54-.89.77-1.43.52-.54-.25-.77-.89-.52-1.43l7.46-15.98c.18-.39.57-.62.97-.62.15,0,.31.03.45.1.54.25.77.89.52,1.43ZM1266.89,273.73l-7.46,15.98c-.25.54-.89.77-1.43.52-.54-.25-.77-.89-.52-1.43l7.46-15.98c.18-.39.57-.62.97-.62.15,0,.31.03.45.1.54.25.77.89.52,1.43ZM1266.89,249.73l-7.46,15.98c-.25.54-.89.77-1.43.52-.54-.25-.77-.89-.52-1.43l7.46-15.98c.18-.39.57-.62.97-.62.15,0,.31.03.45.1.54.25.77.89.52,1.43ZM1266.89,225.73l-7.46,15.98c-.25.54-.89.77-1.43.52-.54-.25-.77-.89-.52-1.43l7.46-15.98c.18-.39.57-.62.97-.62.15,0,.31.03.45.1.54.25.77.89.52,1.43ZM1266.89,201.74l-7.46,15.98c-.25.54-.89.77-1.43.52-.54-.25-.77-.89-.52-1.43l7.46-15.98c.18-.39.57-.62.97-.62.15,0,.31.03.45.1.54.25.77.89.52,1.43ZM1266.89,177.74l-7.46,15.98c-.25.54-.89.77-1.43.52-.54-.25-.77-.89-.52-1.43l7.46-15.98c.18-.39.57-.62.97-.62.15,0,.31.03.45.1.54.25.77.89.52,1.43ZM1266.89,153.74l-7.46,15.98c-.25.54-.89.77-1.43.52-.54-.25-.77-.89-.52-1.43l7.46-15.98c.18-.39.57-.62.97-.62.15,0,.31.03.45.1.54.25.77.89.52,1.43ZM1266.89,129.75l-7.46,15.98c-.25.54-.89.77-1.43.52-.54-.25-.77-.89-.52-1.43l7.46-15.98c.18-.39.57-.62.97-.62.15,0,.31.03.45.1.54.25.77.89.52,1.43ZM1266.89,105.75l-7.46,15.98c-.25.54-.89.77-1.43.52-.54-.25-.77-.89-.52-1.43l7.46-15.98c.18-.39.57-.62.97-.62.15,0,.31.03.45.1.54.25.77.89.52,1.43ZM1266.89,81.75l-7.46,15.98c-.25.54-.89.77-1.43.52-.54-.25-.77-.89-.52-1.43l7.46-15.98c.18-.39.57-.62.97-.62.15,0,.31.03.45.1.54.25.77.89.52,1.43ZM1290.48,297.72l-7.46,15.98c-.25.54-.89.77-1.43.52-.54-.25-.77-.89-.52-1.43l7.46-15.98c.18-.39.57-.62.97-.62.15,0,.31.03.45.1.54.25.77.89.52,1.43ZM1290.48,273.73l-7.46,15.98c-.25.54-.89.77-1.43.52-.54-.25-.77-.89-.52-1.43l7.46-15.98c.18-.39.57-.62.97-.62.15,0,.31.03.45.1.54.25.77.89.52,1.43ZM1290.48,249.73l-7.46,15.98c-.25.54-.89.77-1.43.52-.54-.25-.77-.89-.52-1.43l7.46-15.98c.18-.39.57-.62.97-.62.15,0,.31.03.45.1.54.25.77.89.52,1.43ZM1290.48,225.73l-7.46,15.98c-.25.54-.89.77-1.43.52-.54-.25-.77-.89-.52-1.43l7.46-15.98c.18-.39.57-.62.97-.62.15,0,.31.03.45.1.54.25.77.89.52,1.43ZM1290.48,201.74l-7.46,15.98c-.25.54-.89.77-1.43.52-.54-.25-.77-.89-.52-1.43l7.46-15.98c.18-.39.57-.62.97-.62.15,0,.31.03.45.1.54.25.77.89.52,1.43ZM1290.48,177.74l-7.46,15.98c-.25.54-.89.77-1.43.52-.54-.25-.77-.89-.52-1.43l7.46-15.98c.18-.39.57-.62.97-.62.15,0,.31.03.45.1.54.25.77.89.52,1.43ZM1290.48,153.74l-7.46,15.98c-.25.54-.89.77-1.43.52-.54-.25-.77-.89-.52-1.43l7.46-15.98c.18-.39.57-.62.97-.62.15,0,.31.03.45.1.54.25.77.89.52,1.43ZM1290.48,129.75l-7.46,15.98c-.25.54-.89.77-1.43.52-.54-.25-.77-.89-.52-1.43l7.46-15.98c.18-.39.57-.62.97-.62.15,0,.31.03.45.1.54.25.77.89.52,1.43ZM1290.48,105.75l-7.46,15.98c-.25.54-.89.77-1.43.52-.54-.25-.77-.89-.52-1.43l7.46-15.98c.18-.39.57-.62.97-.62.15,0,.31.03.45.1.54.25.77.89.52,1.43ZM1290.48,81.75l-7.46,15.98c-.25.54-.89.77-1.43.52-.54-.25-.77-.89-.52-1.43l7.46-15.98c.18-.39.57-.62.97-.62.15,0,.31.03.45.1.54.25.77.89.52,1.43ZM1314.06,297.72l-7.46,15.98c-.25.54-.89.77-1.43.52-.54-.25-.77-.89-.52-1.43l7.46-15.98c.18-.39.57-.62.97-.62.15,0,.31.03.45.1.54.25.77.89.52,1.43ZM1314.06,273.73l-7.46,15.98c-.25.54-.89.77-1.43.52-.54-.25-.77-.89-.52-1.43l7.46-15.98c.18-.39.57-.62.97-.62.15,0,.31.03.45.1.54.25.77.89.52,1.43ZM1314.06,249.73l-7.46,15.98c-.25.54-.89.77-1.43.52-.54-.25-.77-.89-.52-1.43l7.46-15.98c.18-.39.57-.62.97-.62.15,0,.31.03.45.1.54.25.77.89.52,1.43ZM1314.06,225.73l-7.46,15.98c-.25.54-.89.77-1.43.52-.54-.25-.77-.89-.52-1.43l7.46-15.98c.18-.39.57-.62.97-.62.15,0,.31.03.45.1.54.25.77.89.52,1.43ZM1314.06,201.74l-7.46,15.98c-.25.54-.89.77-1.43.52-.54-.25-.77-.89-.52-1.43l7.46-15.98c.18-.39.57-.62.97-.62.15,0,.31.03.45.1.54.25.77.89.52,1.43ZM1314.06,177.74l-7.46,15.98c-.25.54-.89.77-1.43.52-.54-.25-.77-.89-.52-1.43l7.46-15.98c.18-.39.57-.62.97-.62.15,0,.31.03.45.1.54.25.77.89.52,1.43ZM1314.06,153.74l-7.46,15.98c-.25.54-.89.77-1.43.52-.54-.25-.77-.89-.52-1.43l7.46-15.98c.18-.39.57-.62.97-.62.15,0,.31.03.45.1.54.25.77.89.52,1.43ZM1314.06,129.75l-7.46,15.98c-.25.54-.89.77-1.43.52-.54-.25-.77-.89-.52-1.43l7.46-15.98c.18-.39.57-.62.97-.62.15,0,.31.03.45.1.54.25.77.89.52,1.43ZM1314.06,105.75l-7.46,15.98c-.25.54-.89.77-1.43.52-.54-.25-.77-.89-.52-1.43l7.46-15.98c.18-.39.57-.62.97-.62.15,0,.31.03.45.1.54.25.77.89.52,1.43Z"/>
  </g>
</svg>